<?xml version="1.0" encoding="UTF-8"?>
<svg id="Livello_2" data-name="Livello 2" xmlns="http://www.w3.org/2000/svg" xmlns:xlink="http://www.w3.org/1999/xlink" viewBox="0 0 92.7 38.15">
  <defs>
    <style>
      .cls-1 {
        fill: url(#Sfumatura_senza_nome_11-2);
      }

      .cls-2 {
        fill: #1d1d1b;
      }

      .cls-3 {
        fill: url(#Sfumatura_senza_nome_11-5);
      }

      .cls-4 {
        fill: url(#Sfumatura_senza_nome_11);
      }

      .cls-5 {
        fill: url(#Sfumatura_senza_nome_11-6);
      }

      .cls-6 {
        fill: url(#Sfumatura_senza_nome_11-4);
      }

      .cls-7 {
        fill: url(#Sfumatura_senza_nome_11-3);
      }
    </style>
    <linearGradient id="Sfumatura_senza_nome_11" data-name="Sfumatura senza nome 11" x1="0" y1="14.64" x2="32.71" y2="14.64" gradientUnits="userSpaceOnUse">
      <stop offset="0" stop-color="#fced98"/>
      <stop offset=".52" stop-color="#b47e11"/>
      <stop offset="1" stop-color="#f8e07d"/>
    </linearGradient>
    <linearGradient id="Sfumatura_senza_nome_11-2" data-name="Sfumatura senza nome 11" x1="73.87" y1="22.64" x2="92.7" y2="22.64" xlink:href="#Sfumatura_senza_nome_11"/>
    <linearGradient id="Sfumatura_senza_nome_11-3" data-name="Sfumatura senza nome 11" x1="52.33" y1="25.18" x2="72.05" y2="25.18" xlink:href="#Sfumatura_senza_nome_11"/>
    <linearGradient id="Sfumatura_senza_nome_11-4" data-name="Sfumatura senza nome 11" x1="40.91" y1="17.43" x2="51.65" y2="17.43" xlink:href="#Sfumatura_senza_nome_11"/>
    <linearGradient id="Sfumatura_senza_nome_11-5" data-name="Sfumatura senza nome 11" x1="33.64" y1="5.46" x2="38.62" y2="5.46" xlink:href="#Sfumatura_senza_nome_11"/>
    <linearGradient id="Sfumatura_senza_nome_11-6" data-name="Sfumatura senza nome 11" x1="43.33" y1="29.5" x2="49.68" y2="29.5" xlink:href="#Sfumatura_senza_nome_11"/>
  </defs>
  <g id="T_ink" data-name="T&amp;apos;ink">
    <g id="T_ink-2" data-name="T&amp;apos;ink">
      <path class="cls-4" d="M20.44,6.35c-.18-.04-.55.75-.56.8-.49,2.42.24,5.85-.09,8.3-.05.39-.61,1.44-.66,1.79-.27,1.85.23,4.5-.4,6.3-.39,1.1-2.71,1.3-3.57,1.62-.32.12-3.1,2.12-2.47.27.29-.83,1.49-1.61,1.72-2.9.5-2.72.43-10.43.19-13.31-.18-2.18-1.25-.35-2.36-1.4l7.82-3.03-.21-.27c-1.44-.22-2.99-.9-4.38-1.18-2.88-.58-10.79-1.43-13.19.07-.59.37-1.05,1.15-1.08,1.84-.04,1.14.56,1.5,1.65,1.65.51.07,2.53.02,3.01-.1.65-.16,2.05-2.16,2.46-1.23.38.87-1.46,1.93-2.11,2.14-2.49.8-6.84.45-6.12-3.19C.53,2.23,5.57.32,7.65.12c4.57-.45,9.09.5,13.5,1.13,2.54.36,6.36,1.22,8.84.74.54-.1,2.34-1.77,2.7-.86.32.8-4.71,4.31-5.34,5.11-1,.28-.59-.64-.69-.73-.03-.03-.52.03-.69-.02-1.36-.43-2.83-.45-4.22-.31v22.36c2.08.28,5.33-1.4,6.69-2.94.46-.52,1.38-2.12,1.57-2.77.28-.91.13-3.72,1.27-3.36,1.63.52.12,4.36-.44,5.32-2.65,4.53-10.74,5.88-15.55,5.39-3.18-.32-6.79-2.42-9.15-4.43-7.26-6.19-1.97-15.93,4.87-19.76.47-.26,3.32-1.74,3.56-.84.14.51-2.74,2.65-3.23,3.35-1.76,2.53-3.66,9.23-2.96,12.19.08.32.55.64.62.89.62,2.2.15,2.8,2,4.6,2.4,2.32,6.15,3.14,9.43,2.69V6.35Z"/>
      <path class="cls-1" d="M80.56,17.83c.7.55,3.03-1.63,3.45-2.21.25-.34.83-1.76.91-1.83.86-.75.75,1.28.83,1.54.54,1.83,1.92,2.91,3.44,3.92.43.28,1.16.07.96.9-.27.66-4.16.66-4.7,1.43,1.62,1.13,3.74.98,4.06,3.49s-.6,8.95.85,10.76c.45.56,2.36,1.27,2.37,1.89l-.15.32c-.72.54-3.68-.98-4.37-1.47-.36-.25-1.99-1.8-2.19-2.15-.99-1.75-.55-7.95-.85-10.19-.29-.89-1.57-1.51-2.47-1.35-.13.02-2.14,1.18-2.2,1.3-.12.24-.07,1.84.03,2.15.28.93,1.74.98,1.76,1.92-.11.27-2.38,1.08-2.74,1.4-.23.21-.91,1.64-1,1.69-.52.24-1.17-1.52-1.97-2-.71-.42-2.56-.48-2.68-1-.15-.65,1.91-.86,2.12-2.02.3-1.61.19-12.91-.1-14.62-.19-1.07-1.47-1.43-1.65-1.85-.3-.72,1.52-.41,1.89-.48,1.42-.27,2.32-1.96,3.23-2.15.65-.14,4.67-.26,4.26.95l-.24.24c-1.14-.38-2.29-.5-3.12.56l-.12,7.81c0,.2.31.98.41,1.06ZM80.26,22.75c.33.21,1.52-.31,1.91-.47s2.56-1.22,2.5-1.53c-.03-.16-2.26-2.16-2.41-2.23-2.23-.94-2.39,2.95-2,4.22Z"/>
      <path class="cls-7" d="M57.5,13.15c.08.06.24,1.49.58,1.92.3.39,1.03.51,1.41.76.89.58.58,1.23,2.09.94.25-.05,3.35-1.47,3.48-1.61.48-.49-.19-1.7.71-2.03.63.48.62,1.31,1.14,1.98.75.96,2.14,1.2,3.29.95.34-.07,1.39-1.24,1.8-.28.51,1.19-2.57,1.37-2.86,2.61.07,3.67-.12,7.35-.12,11.01,0,1.27-.28,5.51.51,6.25.13.12,2.67,1.14,2.42,1.54-2.9.65-6.22-1.22-7.4-3.87-.53-1.83.26-15-.24-15.61-.45-.55-3.35-.48-3.73.04-.46.63.06,7.94-.03,9.29.35.24.66.32.64.85-.08.24-2.03.74-2.42,1.73-.14.37.02,1.2-.54,1.63-1.02.78-1.22-2.13-2.07-2.65-.39-.23-2.39-.31-1.85-1.18.12-.2,1.13-.6,1.23-.75.04-.06.37-1.32.38-1.41.11-.83.21-6.02,0-6.6-.52-1.45-2.15-.7-3.15-.91-1.74-.35,2.47-1.68,2.64-1.78.2-.13,1.22-1.33,1.29-1.54.09-.27-.02-1.84.81-1.28Z"/>
      <path class="cls-6" d="M49.54,9.56c-.12.02-.62.14-.67.18-.45.38.07,10.38-.13,11.75.36,1.43,2.99-.65,2.91.55-.07,1.04-3.81,1.36-4.4,3.25-.1.33.18,1.21-.35,1.25-.98-.21-.37-1.5-.76-1.98-.07-.09-1.91-1.16-2.02-1.18-1.3-.31-2.04,1.25-3.21.38.94-.84,2.13-1.21,2.88-2.35l-.07-8.19c-.18-.73-2.08-1.7-2.04-2.17.07-.8.75-.2.98-.17,3.38.39,3.11-1.55,5.94-2.54.7.45,3.2.04,2.45,1.23-.47.05-1.06-.07-1.51,0Z"/>
      <path class="cls-3" d="M36.51.84c.53.32,2.2,2.25,2.11,2.89-.1.74-1.4,3.62-1.86,4.27-.16.22-2.07,2.16-2.21,2.22-.39.18-.75.19-.88-.26-.25-.85,1.6-1.9,1.49-3.47-.08-1.19-1.61-2.71-1.5-3.18.04-.16,1.89-2.42,2.03-2.51.59-.4.46-.18.82.04Z"/>
      <path class="cls-5" d="M44.83,28.57c.31-.19,1.5-1.01,1.77-1,.3.01.66.55.93.68.41.19,2.14.66,2.14,1.06,0,.43-2.59,1.91-3.13,2.1-.36-.34-3.05-1.43-3.15-1.58-.41-.62.96-.98,1.43-1.27Z"/>
      <path class="cls-2" d="M80.26,22.75c-.38-1.27-.22-5.16,2-4.22.15.06,2.38,2.06,2.41,2.23.06.31-2.11,1.37-2.5,1.53s-1.58.68-1.91.47Z"/>
    </g>
  </g>
</svg>