<?xml version="1.0" encoding="UTF-8"?>
<svg id="Livello_2" data-name="Livello 2" xmlns="http://www.w3.org/2000/svg" xmlns:xlink="http://www.w3.org/1999/xlink" viewBox="0 0 161.61 204.67">
  <defs>
    <style>
      .cls-1 {
        fill: url(#Sfumatura_senza_nome_11-2);
      }

      .cls-2 {
        fill: #1d1d1b;
        stroke: url(#Sfumatura_senza_nome_25);
        stroke-miterlimit: 10;
        stroke-width: 5px;
      }

      .cls-3 {
        fill: url(#Sfumatura_senza_nome_11);
      }

      .cls-4 {
        fill: url(#Sfumatura_senza_nome_11-3);
      }
    </style>
    <linearGradient id="Sfumatura_senza_nome_25" data-name="Sfumatura senza nome 25" x1="0" y1="102.34" x2="161.61" y2="102.34" gradientUnits="userSpaceOnUse">
      <stop offset="0" stop-color="#f2df87"/>
      <stop offset=".51" stop-color="#b48012"/>
      <stop offset="1" stop-color="#f4e38d"/>
    </linearGradient>
    <linearGradient id="Sfumatura_senza_nome_11" data-name="Sfumatura senza nome 11" x1="78.8" y1="110.08" x2="133.38" y2="110.08" gradientUnits="userSpaceOnUse">
      <stop offset="0" stop-color="#fced98"/>
      <stop offset=".52" stop-color="#b47e11"/>
      <stop offset="1" stop-color="#f8e07d"/>
    </linearGradient>
    <linearGradient id="Sfumatura_senza_nome_11-2" data-name="Sfumatura senza nome 11" x1="27.22" y1="110.08" x2="87.62" y2="110.08" xlink:href="#Sfumatura_senza_nome_11"/>
    <linearGradient id="Sfumatura_senza_nome_11-3" data-name="Sfumatura senza nome 11" x1="49.76" y1="77.49" x2="111.78" y2="77.49" xlink:href="#Sfumatura_senza_nome_11"/>
  </defs>
  <g id="T_ink" data-name="T&amp;apos;ink">
    <polygon id="Diamante" class="cls-2" points="158.43 102.34 80.81 200.64 3.19 102.34 80.81 4.03 158.43 102.34"/>
    <g id="Teschio">
      <path class="cls-3" d="M122.05,84.03c2.96,3.23.81,12.21-.96,15.96-.96,2.03-7.59,10.29-9.21,10.51-2.82.38-2.52-3.67-3.92-4.83-7.61-6.28-12.53,8.19-8.1,8.07,1.16-.03.83-4.07,3.49-2.98.25,1.85.05,2.96-.95,4.54-3.85,6.08-17.89,10.92-22.55,17.44-4.1-6.61,4.97,5.94,5.77,4.26.32-.68,4.57-4.22,5.73-3.23.28.24-3.58,5.75,2.3,3.8,1.93-.64,4.01-3.73,4.25-5.71.28-2.29-2.55-3.46-.57-4.61,3.29-1.93,12.1-2.92,15.43-.58.96.68.79,3.85.59,4.09-1.56,1.87-2.42-2.5-3.6-2.88-4.21-1.36-8.54.63-8.44,5.39.31,14.27,28.03,10.53,23.84-7.81-.45-1.95-4.66-6.33-3.75-7.63.22-.31,4.81-2.29,6.49-4.04,1.62-1.67,5.27-7.43,5.47-9.63.18-2.01-.9-3.49-.93-5.02-.06-3.91,1.45-6.35-1.18-10.78-1.11-1.88-2.96-2.06-3.6-2.89-.47-.61-6.39-11.81-8.28-5.21-.84,2.91,1.78,2.77,2.69,3.77Z"/>
      <path class="cls-1" d="M38.55,84.03c-2.96,3.23-.81,12.21.96,15.96.96,2.03,7.59,10.29,9.21,10.51,2.82.38,2.52-3.67,3.92-4.83,7.61-6.28,12.53,8.19,8.1,8.07-1.16-.03-.83-4.07-3.49-2.98-.25,1.85-.05,2.96.95,4.54,3.85,6.08,17.89,10.92,22.55,17.44,4.3-2.42,5.95-2.53,6.52-1.93,1.34,1.38-1.3,8.32-5.79,8.92-2.06.28-4.81-.76-6.41-2.61-.05-.05-.05-.03-.1-.12-.81-1.45-4.97-3.99-5.73-3.23-.61.62,1.57,2.92.75,3.86-.38.43-1.26.53-3.06-.07-1.93-.64-4.01-3.73-4.25-5.71-.28-2.29,2.55-3.46.57-4.61-3.29-1.93-12.1-2.92-15.43-.58-.96.68-.79,3.85-.59,4.09,1.56,1.87,2.42-2.5,3.6-2.88,4.21-1.36,8.54.63,8.44,5.39-.31,14.27-28.03,10.53-23.84-7.81.45-1.95,4.66-6.33,3.75-7.63-.22-.31-4.81-2.29-6.49-4.04-1.62-1.67-5.27-7.43-5.47-9.63-.18-2.01.9-3.49.93-5.02.06-3.91-1.45-6.35,1.18-10.78,1.11-1.88,2.96-2.06,3.6-2.89.47-.61,6.39-11.81,8.28-5.21.84,2.91-1.78,2.77-2.69,3.77Z"/>
      <path class="cls-4" d="M109.39,98.44c-3.87,5.55-8.65-.97-13.15,2.32-5.06,3.69-1.02,15.79-10.87,17.12-4.11.56-12.52.11-15.27-3.33-1.62-2.02-1.47-7.06-2.59-9.92-3.81-9.7-9.46-1-14.77-5.24-7.18-5.72.86-11.68,1.04-17.17.11-3.44-3.97-10.62-3.71-16.63.58-13.56,17.05-28.22,30.39-28.69,16.64-.58,33.51,17.47,31.08,34.17-.55,3.81-3.28,7.94-3.39,11.41-.23,7.07,6.51,8.38,1.23,15.96ZM69.55,67.07c-17.93,3.01-17.93,30.6,3.98,19.98,5.07-2.46,4.77-8.95,4.27-13.72-.66-6.29-1.95-7.32-8.26-6.26ZM86.95,66.98c-2.7,5.72-4.3,17.74,2.84,20.37,9.69,3.57,18.08,3.06,15.96-9.96-1.15-7.08-12.24-11.76-18.8-10.41ZM86.71,99.73c3.04-1.89-1.34-16.39-6.28-16.84-4.75.83-10.44,24.96,1.36,13.95-.27,2.51,3.09,4.04,4.92,2.9Z"/>
    </g>
  </g>
</svg>